<?xml version="1.0" encoding="UTF-8" standalone="no"?>
<!-- Created with Inkscape (http://www.inkscape.org/) -->

<svg
   width="650mm"
   height="130mm"
   viewBox="0 0 650 130"
   version="1.1"
   id="svg1"
   xml:space="preserve"
   inkscape:export-filename="logo.svg"
   inkscape:export-xdpi="96"
   inkscape:export-ydpi="96"
   sodipodi:docname="logo.svg"
   inkscape:version="1.4 (86a8ad7, 2024-10-11)"
   xmlns:inkscape="http://www.inkscape.org/namespaces/inkscape"
   xmlns:sodipodi="http://sodipodi.sourceforge.net/DTD/sodipodi-0.dtd"
   xmlns="http://www.w3.org/2000/svg"
   xmlns:svg="http://www.w3.org/2000/svg"><sodipodi:namedview
     id="namedview1"
     pagecolor="#ffffff"
     bordercolor="#111111"
     borderopacity="1"
     inkscape:showpageshadow="0"
     inkscape:pageopacity="0"
     inkscape:pagecheckerboard="1"
     inkscape:deskcolor="#d1d1d1"
     inkscape:document-units="mm"
     inkscape:export-bgcolor="#ffffff00"
     showgrid="false"
     inkscape:zoom="0.2611234"
     inkscape:cx="1131.6489"
     inkscape:cy="319.77218"
     inkscape:window-width="1920"
     inkscape:window-height="1171"
     inkscape:window-x="-9"
     inkscape:window-y="-9"
     inkscape:window-maximized="1"
     inkscape:current-layer="layer1"><inkscape:page
       x="0"
       y="0"
       width="650"
       height="130"
       id="page2"
       margin="0"
       bleed="0" /></sodipodi:namedview><defs
     id="defs1" /><g
     inkscape:label="Layer 1"
     inkscape:groupmode="layer"
     id="layer1"><text
       xml:space="preserve"
       style="font-size:93.9847px;text-align:start;writing-mode:lr-tb;direction:ltr;text-anchor:start;fill:#000000;stroke-width:0.264583"
       x="203.3741"
       y="95.716331"
       id="text1"><tspan
         sodipodi:role="line"
         id="tspan1"
         style="font-style:normal;font-variant:normal;font-weight:bold;font-stretch:normal;font-size:93.9847px;font-family:Calibri;-inkscape-font-specification:'Calibri Bold';fill:#d5dce5;fill-opacity:1;stroke-width:0.264583"
         x="203.3741"
         y="95.716331">HYPERTYPE</tspan></text><path
       id="text3"
       style="font-weight:bold;font-size:63.5px;font-family:Calibri;-inkscape-font-specification:'Calibri Bold';fill:#8c95aa;stroke-width:0.264583"
       d="m 77.628382,33.702619 c -2.244968,0.03885 -4.845736,0.624755 -6.058594,2.716798 -1.220713,2.005992 -0.588381,4.422004 -0.744141,6.628516 0,0.969531 0,1.939063 0,2.908594 -8.670573,0 -17.341145,0 -26.011718,0 -0.04215,-2.807026 0.178359,-5.642531 -0.224336,-8.427113 -0.753579,-2.550281 -3.576895,-3.880958 -6.088432,-3.773152 -2.51724,-0.171031 -5.396895,-0.01721 -7.275123,1.895577 -1.600962,1.735985 -1.327592,4.257652 -1.309851,6.430859 0.04787,8.930785 -0.04959,17.865461 0.08524,26.793751 0.456265,2.737903 3.321411,4.452428 5.959184,4.359682 2.521491,0.185217 5.404288,0.12612 7.382612,-1.676089 1.420359,-1.423132 1.67388,-3.565468 1.478516,-5.475781 0,-2.053646 0,-4.107292 0,-6.160937 8.671224,0 17.342448,0 26.013672,0 0.04398,3.178377 -0.186726,6.385744 0.220304,9.542388 0.750996,2.563745 3.589218,3.904825 6.112001,3.792519 2.49149,0.164735 5.359039,0.02408 7.205263,-1.889734 1.423863,-1.501866 1.485253,-3.709647 1.347367,-5.651814 -0.0054,-9.149586 0.04179,-18.301851 -0.06853,-27.449609 -0.411851,-2.755305 -3.249434,-4.581253 -5.91814,-4.487038 -0.700993,-0.05079 -1.401944,-0.09841 -2.105294,-0.07742 z" /><path
       id="text4"
       style="font-weight:bold;font-size:63.5px;font-family:Calibri;-inkscape-font-specification:'Calibri Bold';baseline-shift:baseline;display:inline;overflow:visible;vector-effect:none;fill:#8c95aa;stroke-width:1.1495;enable-background:accumulate;stop-color:#000000;stop-opacity:1"
       d="m 94.759766,21.560547 c -15.408174,0.02899 -30.81669,-0.06373 -46.22461,0.04687 -2.735943,0.381902 -4.505327,3.173756 -4.546875,5.791016 -0.209411,2.621522 -0.279481,5.450883 1.001313,7.832182 1.036377,1.722107 3.10841,2.736598 5.104922,2.457397 5.573963,0.06884 11.147927,0.137676 16.72189,0.206514 0.02064,8.28072 -0.06611,16.566124 0.08594,24.84375 0.417792,2.567118 3.042271,4.152768 5.486328,4.28711 3.308209,0.395291 6.880412,0.497652 9.921449,-1.060393 1.847594,-1.187729 2.593474,-3.558307 2.27777,-5.661092 0,-7.469791 0,-14.939583 0,-22.409375 6.243133,-0.0727 12.492015,-0.08776 18.730467,-0.27539 2.73844,-0.506711 4.40188,-3.366594 4.4031,-6.001976 0.21887,-2.476805 0.16678,-5.108984 -0.9031,-7.396462 -1.03157,-1.814215 -3.14807,-2.892809 -5.22265,-2.691096 -2.278647,0.01031 -4.557295,0.02063 -6.835942,0.03094 z"
       transform="matrix(0.86994632,0,0,0.86994632,59.602829,39.98835)" /><path
       id="text5"
       style="font-weight:bold;font-size:88.1944px;font-family:Calibri;-inkscape-font-specification:'Calibri Bold';fill:#8c95aa;stroke-width:0.5"
       d="m 100.12388,34.755094 c -1.571291,0.05761 -3.162692,-0.03209 -4.721793,0.134565 -2.335675,0.5451 -3.585899,3.090637 -3.516069,5.338431 -0.17222,2.453115 -0.20689,5.201537 1.331661,7.265286 1.253594,1.4034 3.281452,1.614912 5.046063,1.431507 14.875138,-0.03066 35.430748,0.07593 50.305358,-0.06893 1.96788,0.227395 3.67297,-1.321027 4.24673,-3.106118 0.55306,-1.628906 0.42062,-3.390052 0.44109,-5.085135 -0.0964,-1.71041 -0.43798,-3.610398 -1.73654,-4.833432 -1.80142,-1.450527 -4.26718,-1.011435 -6.40625,-1.087891 -13.10347,0.01392 -31.88688,-0.02539 -44.99025,0.01172 z"
       sodipodi:nodetypes="scccccccccss" /><path
       id="text5-2"
       style="font-weight:bold;font-size:88.1944px;font-family:Calibri;-inkscape-font-specification:'Calibri Bold';fill:#8c95aa;stroke-width:0.5"
       d="m 41.419397,84.33348 c -2.180876,0.05379 -4.375296,-0.02681 -6.547609,0.130944 -2.536839,0.347472 -4.816151,2.579396 -4.758565,5.220576 -0.307758,2.467422 -0.180356,5.267943 1.585471,7.201214 1.88181,1.683537 4.59016,1.759165 6.975781,1.617092 20.755931,-0.02871 45.401167,0.07123 66.156745,-0.06449 1.59975,0.09941 3.28195,-0.199512 4.55037,-1.241864 1.41885,-1.075533 2.11592,-2.867489 2.06536,-4.618176 0.22709,-2.356532 0.003,-5.020835 -1.77155,-6.778498 -2.00593,-1.608092 -4.74679,-1.463997 -7.17304,-1.478516 -19.064662,0.01361 -42.018355,-0.0248 -61.082963,0.01172 z"
       sodipodi:nodetypes="scccccccccss" /><path
       id="text6"
       style="font-weight:bold;font-size:88.1944px;font-family:Calibri;-inkscape-font-specification:'Calibri Bold';fill:#8c95aa;stroke-width:0.5"
       d="m 145.59466,84.297895 c -1.86762,0.108992 -4.12224,0.502186 -5.10775,2.302234 -1.03689,2.055418 -0.97642,4.462577 -0.8268,6.702844 0.16559,1.708201 0.76736,3.678548 2.48052,4.419334 2.04846,0.897802 4.3868,0.855297 6.56492,0.57184 1.65563,-0.214406 3.36556,-1.129657 3.92251,-2.798653 0.77398,-2.16993 0.73438,-4.556607 0.42773,-6.812786 -0.22606,-1.570684 -1.07025,-3.180473 -2.63455,-3.757748 -1.51636,-0.638233 -3.20567,-0.678008 -4.82658,-0.627065 z" /><path
       style="fill:none;fill-opacity:1;stroke:#8c95aa;stroke-width:14;stroke-linecap:round;stroke-linejoin:round;stroke-dasharray:none;stroke-opacity:1"
       d="m 98.665909,12.960383 26.103211,-0.03734"
       id="path6"
       sodipodi:nodetypes="cc" /><path
       style="fill:none;fill-opacity:1;stroke:#8c95aa;stroke-width:14;stroke-linecap:round;stroke-linejoin:round;stroke-dasharray:none;stroke-opacity:1"
       d="M 55.185289,118.5416 79.252966,118.518"
       id="path6-5"
       sodipodi:nodetypes="cc" /><path
       style="fill:none;fill-opacity:1;stroke:#8c95aa;stroke-width:14;stroke-linecap:round;stroke-linejoin:round;stroke-dasharray:none;stroke-opacity:1"
       d="m 78.739848,12.976627 -68.7839347,0.08039 0.0037,105.310963 H 37.284791"
       id="path7"
       sodipodi:nodetypes="cccc" /><path
       style="fill:none;fill-opacity:1;stroke:#8c95aa;stroke-width:14;stroke-linecap:round;stroke-linejoin:round;stroke-dasharray:none;stroke-opacity:1"
       d="m 145.088,12.958283 28.445,0.08039 0.0194,105.478647 -74.928011,0.003"
       id="path7-8"
       sodipodi:nodetypes="cccc" /></g></svg>
